<svg xmlns="http://www.w3.org/2000/svg" width="150" height="45.846" viewBox="0 0 150 45.846"><path fill="#FFF" d="M1.358 34.151h1.266v9.535H1.358zM12.39 43.686h1.199v-7.483h.026l4.981 7.483h1.292v-9.535h-1.2v7.484h-.025l-4.981-7.484H12.39zM29.074 43.686h1.265v-4.315h4.475v-1.132h-4.475v-2.956h5.167v-1.132h-6.432z"/><path fill-rule="evenodd" clip-rule="evenodd" fill="#FFF" d="M43.829 39.038c0 2.438 1.586 4.808 4.569 4.808 2.543 0 4.555-1.824 4.555-4.914 0-3.062-1.957-4.939-4.555-4.939-2.477-.001-4.569 1.663-4.569 5.045m1.307.028c0-.308 0-1.758.68-2.718.57-.838 1.582-1.278 2.596-1.278 1.623 0 3.237 1.132 3.237 3.862 0 2.623-1.519 3.836-3.266 3.836-1.927 0-3.247-1.492-3.247-3.702M61.246 43.686h1.264v-4.207h1.453c1.05 0 1.491.092 2.849 2.236l1.253 1.971h1.583l-1.663-2.598c-.748-1.156-1.32-1.504-1.799-1.73v-.025c1.624-.214 2.676-1.039 2.676-2.572 0-.998-.518-1.984-1.491-2.355-.624-.24-1.239-.254-1.904-.254h-4.22v9.534zm1.264-8.483h3.01c.494 0 .906.053 1.304.268.399.211.733.691.733 1.289 0 .576-.334 1.148-.824 1.359-.52.227-.946.227-1.519.227H62.51v-3.143z"/><path fill="#FFF" d="M78.085 43.686h1.2v-8.109h.039l2.729 8.109h1.132l2.743-7.977h.027v7.977h1.2v-9.535h-1.679l-2.278 6.633c-.304.905-.347 1.012-.505 1.533h-.026c-.067-.281-.12-.467-.44-1.414l-2.25-6.752h-1.892v9.535z"/><path fill-rule="evenodd" clip-rule="evenodd" fill="#FFF" d="M94.99 43.686h1.331l1.054-2.902h3.98l1.117 2.902h1.426l-3.889-9.535h-1.357l-3.662 9.535zm3.796-6.711c.225-.599.386-1.199.505-1.824h.027c.199.772.412 1.358.652 1.984l1 2.648h-3.238l1.054-2.808z"/><path fill="#FFF" d="M113.5 43.686h1.267v-8.403h3.155v-1.132h-7.55v1.132h3.128zM126.499 34.151h1.265v9.535h-1.265zM137.006 43.686h1.265v-3.301l1.571-1.52 3.383 4.821h1.664l-4.168-5.672 3.994-3.863h-1.701l-4.743 4.729v-4.729h-1.265z"/><path fill-rule="evenodd" clip-rule="evenodd" fill="#FFF" d="M19.727 23.587h-9.204l-1.264 4.255H1l9.827-25.779h8.81l9.827 25.779h-8.456l-1.281-4.255zm-1.697-5.575l-2.889-9.269-2.871 9.269h5.76zM55.942 15.001c0-4.225 1.179-7.515 3.53-9.869C61.829 2.779 65.106 1.6 69.309 1.6c4.309 0 7.625 1.159 9.957 3.479 2.329 2.308 3.495 5.542 3.495 9.709 0 3.026-.511 5.509-1.536 7.452-1.01 1.931-2.483 3.437-4.414 4.519-1.917 1.072-4.312 1.607-7.186 1.607-2.918 0-5.337-.465-7.255-1.396-1.907-.928-3.454-2.401-4.644-4.413-1.189-2.013-1.784-4.532-1.784-7.556m7.998.033c0 2.613.482 4.491 1.449 5.634.976 1.142 2.3 1.714 3.973 1.714 1.718 0 3.048-.562 3.99-1.678.938-1.119 1.411-3.125 1.411-6.022 0-2.438-.494-4.212-1.482-5.331-.977-1.131-2.307-1.696-3.991-1.696-1.61 0-2.907.572-3.885 1.712-.975 1.143-1.465 3.032-1.465 5.667M38.877 12.474h3.407c.368 0 1.081-.119 2.139-.357a2.084 2.084 0 0 0 1.302-.821c.343-.44.516-.946.517-1.515 0-.845-.268-1.492-.802-1.945-.534-.45-1.541-.675-3.013-.675h-3.551v5.313zm-8.115 15.368V2.063h13.466c2.495 0 4.402.21 5.725.632 1.319.422 2.381 1.208 3.191 2.357.809 1.138 1.211 2.526 1.213 4.168 0 1.43-.309 2.667-.929 3.709-.617 1.032-1.466 1.87-2.549 2.515-.692.409-2.079.751-3.279 1.02.057.007 8.878 11.377 8.878 11.377h-9.131l-8.471-10.463v10.463h-8.114z"/><path fill="#C20049" d="M105.604 2.051l-3.235 15.015h-.072l-6.35-15.015h-7.451l-5.542 25.775h7.491l3.2-14.979h.072l6.384 14.979h21.723l1.268-5.876H108.9l1.091-5.04h12.535l1.16-5.221h-12.555l.865-4.098h13.083l.005-.026h5.946l-4.342 20.261h8l4.358-20.261h8.385l1.148-5.514z"/></svg>